<svg width="1280" height="640" viewBox="0 0 1280 640" fill="none" xmlns="http://www.w3.org/2000/svg"><defs><radialGradient id="bg" cx="0" cy="0" r="1" gradientTransform="translate(290 300) rotate(18) scale(700 520)"><stop stop-color="#111D45"/><stop offset="1" stop-color="#050816"/></radialGradient><linearGradient id="g" x1="120" y1="90" x2="570" y2="520"><stop stop-color="#22A7F0"/><stop offset=".38" stop-color="#367BFF"/><stop offset=".72" stop-color="#8B5CF6"/><stop offset="1" stop-color="#B179FF"/></linearGradient></defs><rect width="1280" height="640" fill="url(#bg)"/><g transform="translate(40 42)"><circle cx="256" cy="256" r="42" stroke="url(#g)" stroke-width="12"/><circle cx="256" cy="256" r="86" stroke="url(#g)" stroke-width="10"/><circle cx="256" cy="256" r="132" stroke="url(#g)" stroke-width="8"/><circle cx="256" cy="256" r="178" stroke="url(#g)" stroke-width="6"/><path d="M78 254L118 206L150 236L188 178L222 206M92 330L132 298L164 332L204 296" stroke="url(#g)" stroke-width="10" stroke-linecap="round"/><g fill="#9C69FA"><circle cx="374" cy="164" r="7"/><circle cx="404" cy="188" r="6"/><circle cx="426" cy="220" r="5"/><circle cx="389" cy="238" r="8"/><circle cx="430" cy="268" r="7"/><circle cx="400" cy="300" r="6"/><circle cx="378" cy="336" r="8"/></g><circle cx="256" cy="256" r="13" fill="#fff"/></g><text x="565" y="292" fill="#fff" font-family="Inter,Arial,sans-serif" font-size="118" letter-spacing="-6">memoria</text><text x="1010" y="292" fill="#8B5CF6" font-family="Inter,Arial,sans-serif" font-size="118" letter-spacing="-6">.ia</text><text x="570" y="355" fill="#AAB4D6" font-family="Inter,Arial,sans-serif" font-size="24" font-weight="500" letter-spacing="4">MEMÓRIA RESOLUTIVA</text><text x="570" y="405" fill="#7380A8" font-family="Inter,Arial,sans-serif" font-size="20" letter-spacing="2">estado • relações • trajetórias • contexto</text></svg>