<svg width="900" height="1000" viewBox="0 0 900 1000" fill="none" xmlns="http://www.w3.org/2000/svg"><defs><linearGradient id="g" x1="230" y1="100" x2="650" y2="600" gradientUnits="userSpaceOnUse"><stop stop-color="#22A7F0"/><stop offset=".4" stop-color="#367BFF"/><stop offset=".72" stop-color="#8B5CF6"/><stop offset="1" stop-color="#B179FF"/></linearGradient></defs><rect width="900" height="1000" rx="44" fill="#050816"/><g transform="translate(194 82)"><circle cx="256" cy="256" r="42" stroke="url(#g)" stroke-width="12"/><circle cx="256" cy="256" r="86" stroke="url(#g)" stroke-width="10"/><circle cx="256" cy="256" r="132" stroke="url(#g)" stroke-width="8"/><circle cx="256" cy="256" r="178" stroke="url(#g)" stroke-width="6"/><path d="M78 254L118 206L150 236L188 178L222 206M92 330L132 298L164 332L204 296" stroke="url(#g)" stroke-width="10" stroke-linecap="round"/><g fill="#22A7F0"><circle cx="78" cy="254" r="13"/><circle cx="118" cy="206" r="11"/><circle cx="150" cy="236" r="10"/></g><g fill="#9C69FA"><circle cx="374" cy="164" r="7"/><circle cx="404" cy="188" r="6"/><circle cx="426" cy="220" r="5"/><circle cx="389" cy="238" r="8"/><circle cx="430" cy="268" r="7"/><circle cx="400" cy="300" r="6"/><circle cx="378" cy="336" r="8"/></g><circle cx="256" cy="256" r="13" fill="#fff"/></g><text x="118" y="710" fill="#fff" font-family="Inter,Arial,sans-serif" font-size="128" letter-spacing="-6">memoria</text><text x="628" y="710" fill="#8B5CF6" font-family="Inter,Arial,sans-serif" font-size="128" letter-spacing="-6">.ia</text><text x="450" y="790" text-anchor="middle" fill="#AAB4D6" font-family="Inter,Arial,sans-serif" font-size="21" font-weight="500" letter-spacing="3">MEMÓRIA RESOLUTIVA • CONTEXTO INTELIGENTE</text></svg>